<svg width="19" height="17" viewBox="0 0 19 17" fill="none" xmlns="http://www.w3.org/2000/svg">
<path d="M18.1418 7.93703C18.1418 12.3205 14.0803 15.8741 9.07089 15.8741C8.17247 15.8753 7.27778 15.7586 6.40972 15.5271C5.74754 15.8627 4.22703 16.5067 1.66904 16.9263C1.44227 16.9626 1.26992 16.7267 1.3595 16.5158C1.76089 15.5679 2.12372 14.3048 2.23257 13.1528C0.843592 11.7581 0 9.93262 0 7.93703C0 3.55352 4.06149 0 9.07089 0C14.0803 0 18.1418 3.55352 18.1418 7.93703ZM5.6693 7.93703C5.6693 7.63631 5.54984 7.34791 5.3372 7.13527C5.12456 6.92263 4.83616 6.80317 4.53544 6.80317C4.23473 6.80317 3.94632 6.92263 3.73368 7.13527C3.52104 7.34791 3.40158 7.63631 3.40158 7.93703C3.40158 8.23775 3.52104 8.52615 3.73368 8.73879C3.94632 8.95143 4.23473 9.07089 4.53544 9.07089C4.83616 9.07089 5.12456 8.95143 5.3372 8.73879C5.54984 8.52615 5.6693 8.23775 5.6693 7.93703V7.93703ZM10.2047 7.93703C10.2047 7.63631 10.0853 7.34791 9.87265 7.13527C9.66001 6.92263 9.37161 6.80317 9.07089 6.80317C8.77017 6.80317 8.48177 6.92263 8.26913 7.13527C8.05649 7.34791 7.93703 7.63631 7.93703 7.93703C7.93703 8.23775 8.05649 8.52615 8.26913 8.73879C8.48177 8.95143 8.77017 9.07089 9.07089 9.07089C9.37161 9.07089 9.66001 8.95143 9.87265 8.73879C10.0853 8.52615 10.2047 8.23775 10.2047 7.93703V7.93703ZM13.6063 9.07089C13.907 9.07089 14.1955 8.95143 14.4081 8.73879C14.6207 8.52615 14.7402 8.23775 14.7402 7.93703C14.7402 7.63631 14.6207 7.34791 14.4081 7.13527C14.1955 6.92263 13.907 6.80317 13.6063 6.80317C13.3056 6.80317 13.0172 6.92263 12.8046 7.13527C12.5919 7.34791 12.4725 7.63631 12.4725 7.93703C12.4725 8.23775 12.5919 8.52615 12.8046 8.73879C13.0172 8.95143 13.3056 9.07089 13.6063 9.07089V9.07089Z" fill="white"/>
</svg>
