<svg width="267" height="287" viewBox="0 0 267 287" fill="none" xmlns="http://www.w3.org/2000/svg">
<path d="M62.85 286.098C67.9842 286.098 72.1463 284.537 72.1463 282.612C72.1463 280.686 67.9842 279.125 62.85 279.125C57.7158 279.125 53.5537 280.686 53.5537 282.612C53.5537 284.537 57.7158 286.098 62.85 286.098Z" fill="#F2F2F2"/>
<path d="M85.1615 285.633C90.2957 285.633 94.4578 284.072 94.4578 282.147C94.4578 280.222 90.2957 278.661 85.1615 278.661C80.0273 278.661 75.8652 280.222 75.8652 282.147C75.8652 284.072 80.0273 285.633 85.1615 285.633Z" fill="#F2F2F2"/>
<path d="M114.78 227.038C123.565 221.974 129.397 215.633 127.808 212.875C126.218 210.117 117.807 211.987 109.023 217.051C100.238 222.116 94.405 228.457 95.9949 231.214C97.5847 233.972 105.995 232.103 114.78 227.038Z" fill="#F2F2F2"/>
<path d="M106.534 239.456C109.782 219.438 96.1875 200.576 76.1693 197.328C56.1511 194.079 37.2896 207.674 34.0411 227.692C30.7926 247.71 44.3872 266.572 64.4054 269.82C84.4236 273.069 103.285 259.474 106.534 239.456Z" fill="#F2F2F2"/>
<path d="M64.7092 262.392H53.5537V282.379H64.7092V262.392Z" fill="#F2F2F2"/>
<path d="M87.0208 262.392H75.8652V282.379H87.0208V262.392Z" fill="#F2F2F2"/>
<path d="M71.217 236.827C78.1482 236.827 83.767 231.208 83.767 224.277C83.767 217.346 78.1482 211.727 71.217 211.727C64.2858 211.727 58.667 217.346 58.667 224.277C58.667 231.208 64.2858 236.827 71.217 236.827Z" fill="white"/>
<path d="M71.2165 228.461C73.5269 228.461 75.3999 226.588 75.3999 224.278C75.3999 221.967 73.5269 220.094 71.2165 220.094C68.9061 220.094 67.0332 221.967 67.0332 224.278C67.0332 226.588 68.9061 228.461 71.2165 228.461Z" fill="#3F3D56"/>
<path d="M34.6679 199.425C31.7029 186.146 41.1808 172.729 55.8374 169.456C70.494 166.183 84.7791 174.295 87.7441 187.573C90.7091 200.852 80.9956 205.749 66.339 209.022C51.6824 212.295 37.6329 212.703 34.6679 199.425Z" fill="#3F3D56"/>
<path d="M45.5169 224.403C46.8811 221.527 40.5598 215.673 31.398 211.328C22.2361 206.982 13.7032 205.791 12.3391 208.667C10.975 211.544 17.2962 217.398 26.458 221.743C35.6199 226.088 44.1528 227.279 45.5169 224.403Z" fill="#F2F2F2"/>
<path d="M52.251 246.821C52.251 250.415 61.5047 257.512 71.7731 257.512C82.0416 257.512 91.6693 247.394 91.6693 243.8C91.6693 240.206 82.0415 244.497 71.7731 244.497C61.5048 244.497 52.251 243.227 52.251 246.821Z" fill="white"/>
<path d="M198.329 286.098C203.463 286.098 207.625 284.537 207.625 282.612C207.625 280.686 203.463 279.125 198.329 279.125C193.194 279.125 189.032 280.686 189.032 282.612C189.032 284.537 193.194 286.098 198.329 286.098Z" fill="#F2F2F2"/>
<path d="M176.017 285.633C181.151 285.633 185.313 284.072 185.313 282.147C185.313 280.222 181.151 278.661 176.017 278.661C170.883 278.661 166.721 280.222 166.721 282.147C166.721 284.072 170.883 285.633 176.017 285.633Z" fill="#F2F2F2"/>
<path d="M165.184 231.214C166.773 228.457 160.941 222.115 152.156 217.051C143.371 211.987 134.961 210.117 133.371 212.875C131.781 215.633 137.614 221.974 146.399 227.038C155.183 232.102 163.594 233.972 165.184 231.214Z" fill="#F2F2F2"/>
<path d="M190.891 270.294C211.171 270.294 227.612 253.854 227.612 233.574C227.612 213.294 211.171 196.854 190.891 196.854C170.611 196.854 154.171 213.294 154.171 233.574C154.171 253.854 170.611 270.294 190.891 270.294Z" fill="#F2F2F2"/>
<path d="M207.625 262.392H196.47V282.379H207.625V262.392Z" fill="#F2F2F2"/>
<path d="M185.314 262.392H174.158V282.379H185.314V262.392Z" fill="#F2F2F2"/>
<path d="M182.288 236.827C189.219 236.827 194.838 231.208 194.838 224.277C194.838 217.346 189.219 211.727 182.288 211.727C175.357 211.727 169.738 217.346 169.738 224.277C169.738 231.208 175.357 236.827 182.288 236.827Z" fill="white"/>
<path d="M179.264 225.519C180.903 223.881 180.914 221.234 179.287 219.607C177.661 217.979 175.014 217.987 173.375 219.625C171.736 221.263 171.725 223.91 173.352 225.537C174.978 227.165 177.625 227.157 179.264 225.519Z" fill="#3F3D56"/>
<path d="M194.841 209.022C180.184 205.749 170.47 200.852 173.435 187.573C176.4 174.295 190.686 166.183 205.342 169.456C219.999 172.729 229.477 186.146 226.512 199.425C223.547 212.703 209.497 212.295 194.841 209.022Z" fill="#3F3D56"/>
<path d="M229.29 261.564C232.366 260.747 232.75 252.14 230.147 242.34C227.544 232.54 222.94 225.257 219.864 226.075C216.787 226.892 216.403 235.499 219.006 245.299C221.609 255.099 226.213 262.382 229.29 261.564Z" fill="#F2F2F2"/>
<path d="M182.573 244.498C175.832 244.498 169.511 240.206 169.511 243.8C169.511 247.394 175.832 257.512 182.573 257.512C189.314 257.512 195.39 250.416 195.39 246.822C195.39 243.228 189.314 244.498 182.573 244.498Z" fill="white"/>
<path d="M135.117 172.69H131.856C128.935 172.687 126.134 171.525 124.069 169.459C122.003 167.394 120.841 164.593 120.838 161.672V158.934C120.838 152.153 122.123 146.475 124.657 142.059C127.728 136.921 131.311 132.107 135.35 127.69C138.032 124.993 140.466 122.06 142.621 118.926C144.168 116.492 144.966 113.657 144.918 110.773C144.918 103.971 140.486 100.664 131.369 100.664C126.312 100.721 121.286 101.476 116.435 102.906C114.564 103.44 112.595 103.532 110.682 103.176C108.77 102.82 106.966 102.024 105.412 100.853C103.859 99.6807 102.599 98.1644 101.732 96.423C100.864 94.6816 100.412 92.7625 100.412 90.8169V85.2748C100.402 82.889 101.083 80.5514 102.374 78.5452C103.666 76.539 105.511 74.9504 107.687 73.9721C116.255 70.3157 125.495 68.498 134.809 68.6365C144.567 68.6365 153.375 70.2756 160.991 73.5075C168.62 76.7469 174.647 81.3148 178.905 87.0846C183.151 92.8135 185.407 99.7731 185.331 106.903C185.331 114.56 183.241 121.228 179.118 126.724C175.041 132.163 169.196 138.118 161.745 144.424C157.819 147.689 154.1 151.193 150.607 154.917C148.351 157.347 146.756 160.316 145.976 163.539C145.541 166.102 144.212 168.429 142.223 170.104C140.235 171.78 137.717 172.696 135.117 172.69Z" fill="#6C63FF"/>
<path d="M133.304 224.505H132.874C127.46 224.502 122.269 222.349 118.442 218.519C114.616 214.69 112.466 209.498 112.466 204.084C112.466 198.67 114.616 193.478 118.442 189.649C122.269 185.819 127.46 183.666 132.874 183.663H133.304C135.987 183.661 138.644 184.188 141.123 185.213C143.602 186.239 145.855 187.743 147.753 189.639C149.65 191.536 151.156 193.788 152.183 196.266C153.21 198.745 153.739 201.401 153.739 204.084C153.739 206.767 153.21 209.423 152.183 211.902C151.156 214.38 149.65 216.632 147.753 218.529C145.855 220.425 143.602 221.929 141.123 222.955C138.644 223.98 135.987 224.507 133.304 224.505Z" fill="#6C63FF"/>
<path d="M266.019 286.483H0.852626C0.626496 286.483 0.409639 286.393 0.249741 286.233C0.0898424 286.073 0 285.856 0 285.63C0 285.404 0.0898424 285.187 0.249741 285.027C0.409639 284.867 0.626496 284.777 0.852626 284.777H266.019C266.246 284.777 266.462 284.867 266.622 285.027C266.782 285.187 266.872 285.404 266.872 285.63C266.872 285.856 266.782 286.073 266.622 286.233C266.462 286.393 266.246 286.483 266.019 286.483Z" fill="#E6E6E6"/>
<path d="M183.452 41.7785H161.284C160.153 41.7772 159.07 41.3277 158.271 40.5284C157.471 39.7292 157.022 38.6457 157.021 37.5154V15.3471C157.022 14.2169 157.471 13.1333 158.271 12.3341C159.07 11.5349 160.153 11.0853 161.284 11.084H183.452C184.582 11.0853 185.666 11.5349 186.465 12.3341C187.264 13.1333 187.714 14.2169 187.715 15.3471V37.5154C187.714 38.6457 187.264 39.7292 186.465 40.5284C185.666 41.3277 184.582 41.7772 183.452 41.7785ZM161.284 12.7892C160.605 12.79 159.955 13.0597 159.476 13.5392C158.996 14.0188 158.727 14.669 158.726 15.3471V37.5154C158.727 38.1936 158.996 38.8437 159.476 39.3233C159.955 39.8028 160.605 40.0725 161.284 40.0733H183.452C184.13 40.0725 184.78 39.8028 185.26 39.3233C185.739 38.8437 186.009 38.1936 186.01 37.5154V15.3471C186.009 14.669 185.739 14.0188 185.26 13.5392C184.78 13.0597 184.13 12.79 183.452 12.7892H161.284Z" fill="#F2F2F2"/>
<path d="M169.81 30.6945H147.642C146.512 30.6933 145.428 30.2437 144.629 29.4445C143.83 28.6453 143.38 27.5617 143.379 26.4314V4.26313C143.38 3.13288 143.83 2.0493 144.629 1.25008C145.428 0.450871 146.512 0.00129305 147.642 0H169.81C170.941 0.00129305 172.024 0.450871 172.823 1.25008C173.623 2.0493 174.072 3.13288 174.073 4.26313V26.4314C174.072 27.5617 173.623 28.6453 172.823 29.4445C172.024 30.2437 170.941 30.6933 169.81 30.6945ZM147.642 1.70525C146.964 1.70599 146.314 1.97572 145.834 2.45526C145.355 2.93479 145.085 3.58497 145.084 4.26313V26.4314C145.085 27.1096 145.355 27.7598 145.834 28.2393C146.314 28.7188 146.964 28.9886 147.642 28.9893H169.81C170.489 28.9886 171.139 28.7188 171.618 28.2393C172.098 27.7598 172.367 27.1096 172.368 26.4314V4.26313C172.367 3.58497 172.098 2.93479 171.618 2.45526C171.139 1.97572 170.489 1.70599 169.81 1.70525H147.642Z" fill="#F2F2F2"/>
<path d="M52.1984 142.079C55.2436 142.079 57.7123 139.61 57.7123 136.565C57.7123 133.52 55.2436 131.051 52.1984 131.051C49.1532 131.051 46.6846 133.52 46.6846 136.565C46.6846 139.61 49.1532 142.079 52.1984 142.079Z" fill="#E6E6E6"/>
</svg>
