<svg width="11" height="23" viewBox="0 0 11 23" fill="none" xmlns="http://www.w3.org/2000/svg">
<path d="M9.50001 6.74394L9.50001 17.3239C9.50001 19.4139 7.97001 21.2739 5.89001 21.4739C5.33451 21.5287 4.7737 21.4665 4.2437 21.2913C3.71369 21.1162 3.22623 20.8321 2.81269 20.4571C2.39915 20.0822 2.06871 19.6249 1.84262 19.1145C1.61654 18.6042 1.49983 18.0521 1.50001 17.4939L1.50001 5.13394C1.50001 3.82394 2.44001 2.63394 3.74001 2.50394C4.08864 2.46749 4.44104 2.50475 4.77434 2.61333C5.10764 2.7219 5.41438 2.89935 5.67465 3.13416C5.93492 3.36896 6.1429 3.65588 6.28509 3.97628C6.42728 4.29668 6.5005 4.64341 6.50001 4.99394L6.50001 15.4939C6.50001 16.0439 6.05001 16.4939 5.50001 16.4939C4.95001 16.4939 4.50001 16.0439 4.50001 15.4939L4.50001 6.74394C4.50001 6.33394 4.16001 5.99394 3.75001 5.99394C3.34001 5.99394 3.00001 6.33394 3.00001 6.74394L3.00001 15.3539C3.00001 16.6639 3.94001 17.8539 5.24001 17.9839C5.58864 18.0204 5.94104 17.9831 6.27434 17.8746C6.60764 17.766 6.91438 17.5885 7.17465 17.3537C7.43492 17.1189 7.6429 16.832 7.78509 16.5116C7.92728 16.1912 8.0005 15.8445 8.00001 15.4939L8.00001 5.16394C8.00001 3.07394 6.47001 1.21394 4.39001 1.01394C3.83435 0.95842 3.27323 1.02006 2.74288 1.19489C2.21253 1.36972 1.72475 1.65385 1.31104 2.02892C0.897335 2.40399 0.566897 2.86167 0.341072 3.37239C0.115247 3.88311 -0.000943152 4.43552 5.76572e-06 4.99394L5.76572e-06 17.2639C5.76572e-06 20.1339 2.10001 22.7039 4.96001 22.9739C5.7245 23.0486 6.49616 22.9624 7.22536 22.721C7.95455 22.4795 8.62515 22.0882 9.19404 21.572C9.76292 21.0559 10.2175 20.4264 10.5285 19.7241C10.8395 19.0217 11.0002 18.2621 11 17.4939L11 6.74394C11 6.33394 10.66 5.99394 10.25 5.99394C9.84001 5.99394 9.50001 6.33394 9.50001 6.74394Z" fill="#8E97FD"/>
</svg>
