<svg width="20" height="25" viewBox="0 0 20 25" fill="none" xmlns="http://www.w3.org/2000/svg">
<mask id="path-1-inside-1_1391_375" fill="white">
<path d="M3.75 6.25C3.75 5.58696 4.01339 4.95107 4.48223 4.48223C4.95107 4.01339 5.58696 3.75 6.25 3.75H13.75C14.413 3.75 15.0489 4.01339 15.5178 4.48223C15.9866 4.95107 16.25 5.58696 16.25 6.25V7.5C16.25 8.16304 15.9866 8.79893 15.5178 9.26777C15.0489 9.73661 14.413 10 13.75 10H6.25C5.58696 10 4.95107 9.73661 4.48223 9.26777C4.01339 8.79893 3.75 8.16304 3.75 7.5V6.25ZM6.25 5.625C6.08424 5.625 5.92527 5.69085 5.80806 5.80806C5.69085 5.92527 5.625 6.08424 5.625 6.25V7.5C5.625 7.66576 5.69085 7.82473 5.80806 7.94194C5.92527 8.05915 6.08424 8.125 6.25 8.125H13.75C13.9158 8.125 14.0747 8.05915 14.1919 7.94194C14.3092 7.82473 14.375 7.66576 14.375 7.5V6.25C14.375 6.08424 14.3092 5.92527 14.1919 5.80806C14.0747 5.69085 13.9158 5.625 13.75 5.625H6.25ZM5.3125 15.625C5.7269 15.625 6.12433 15.4604 6.41735 15.1674C6.71038 14.8743 6.875 14.4769 6.875 14.0625C6.875 13.6481 6.71038 13.2507 6.41735 12.9576C6.12433 12.6646 5.7269 12.5 5.3125 12.5C4.8981 12.5 4.50067 12.6646 4.20765 12.9576C3.91462 13.2507 3.75 13.6481 3.75 14.0625C3.75 14.4769 3.91462 14.8743 4.20765 15.1674C4.50067 15.4604 4.8981 15.625 5.3125 15.625ZM6.875 19.0625C6.875 19.4769 6.71038 19.8743 6.41735 20.1674C6.12433 20.4604 5.7269 20.625 5.3125 20.625C4.8981 20.625 4.50067 20.4604 4.20765 20.1674C3.91462 19.8743 3.75 19.4769 3.75 19.0625C3.75 18.6481 3.91462 18.2507 4.20765 17.9576C4.50067 17.6646 4.8981 17.5 5.3125 17.5C5.7269 17.5 6.12433 17.6646 6.41735 17.9576C6.71038 18.2507 6.875 18.6481 6.875 19.0625ZM14.6875 15.625C15.1019 15.625 15.4993 15.4604 15.7924 15.1674C16.0854 14.8743 16.25 14.4769 16.25 14.0625C16.25 13.6481 16.0854 13.2507 15.7924 12.9576C15.4993 12.6646 15.1019 12.5 14.6875 12.5C14.2731 12.5 13.8757 12.6646 13.5826 12.9576C13.2896 13.2507 13.125 13.6481 13.125 14.0625C13.125 14.4769 13.2896 14.8743 13.5826 15.1674C13.8757 15.4604 14.2731 15.625 14.6875 15.625ZM16.25 19.0625C16.25 19.4769 16.0854 19.8743 15.7924 20.1674C15.4993 20.4604 15.1019 20.625 14.6875 20.625C14.2731 20.625 13.8757 20.4604 13.5826 20.1674C13.2896 19.8743 13.125 19.4769 13.125 19.0625C13.125 18.6481 13.2896 18.2507 13.5826 17.9576C13.8757 17.6646 14.2731 17.5 14.6875 17.5C15.1019 17.5 15.4993 17.6646 15.7924 17.9576C16.0854 18.2507 16.25 18.6481 16.25 19.0625ZM10 15.625C10.4144 15.625 10.8118 15.4604 11.1049 15.1674C11.3979 14.8743 11.5625 14.4769 11.5625 14.0625C11.5625 13.6481 11.3979 13.2507 11.1049 12.9576C10.8118 12.6646 10.4144 12.5 10 12.5C9.5856 12.5 9.18817 12.6646 8.89515 12.9576C8.60212 13.2507 8.4375 13.6481 8.4375 14.0625C8.4375 14.4769 8.60212 14.8743 8.89515 15.1674C9.18817 15.4604 9.5856 15.625 10 15.625ZM11.5625 19.0625C11.5625 19.4769 11.3979 19.8743 11.1049 20.1674C10.8118 20.4604 10.4144 20.625 10 20.625C9.5856 20.625 9.18817 20.4604 8.89515 20.1674C8.60212 19.8743 8.4375 19.4769 8.4375 19.0625C8.4375 18.6481 8.60212 18.2507 8.89515 17.9576C9.18817 17.6646 9.5856 17.5 10 17.5C10.4144 17.5 10.8118 17.6646 11.1049 17.9576C11.3979 18.2507 11.5625 18.6481 11.5625 19.0625ZM4.0625 0C2.98506 0 1.95175 0.428012 1.18988 1.18988C0.428012 1.95175 0 2.98506 0 4.0625V20.9375C0 21.471 0.10508 21.9993 0.30924 22.4922C0.513399 22.985 0.812641 23.4329 1.18988 23.8101C1.56712 24.1874 2.01496 24.4866 2.50785 24.6908C3.00073 24.8949 3.529 25 4.0625 25H15.9375C16.471 25 16.9993 24.8949 17.4922 24.6908C17.985 24.4866 18.4329 24.1874 18.8101 23.8101C19.1874 23.4329 19.4866 22.985 19.6908 22.4922C19.8949 21.9993 20 21.471 20 20.9375V4.0625C20 2.98506 19.572 1.95175 18.8101 1.18988C18.0483 0.428012 17.0149 0 15.9375 0H4.0625ZM1.875 4.0625C1.875 2.855 2.855 1.875 4.0625 1.875H15.9375C17.145 1.875 18.125 2.855 18.125 4.0625V20.9375C18.125 21.5177 17.8945 22.0741 17.4843 22.4843C17.0741 22.8945 16.5177 23.125 15.9375 23.125H4.0625C3.48234 23.125 2.92594 22.8945 2.5157 22.4843C2.10547 22.0741 1.875 21.5177 1.875 20.9375V4.0625Z"/>
</mask>
<path d="M3.75 6.25C3.75 5.58696 4.01339 4.95107 4.48223 4.48223C4.95107 4.01339 5.58696 3.75 6.25 3.75H13.75C14.413 3.75 15.0489 4.01339 15.5178 4.48223C15.9866 4.95107 16.25 5.58696 16.25 6.25V7.5C16.25 8.16304 15.9866 8.79893 15.5178 9.26777C15.0489 9.73661 14.413 10 13.75 10H6.25C5.58696 10 4.95107 9.73661 4.48223 9.26777C4.01339 8.79893 3.75 8.16304 3.75 7.5V6.25ZM6.25 5.625C6.08424 5.625 5.92527 5.69085 5.80806 5.80806C5.69085 5.92527 5.625 6.08424 5.625 6.25V7.5C5.625 7.66576 5.69085 7.82473 5.80806 7.94194C5.92527 8.05915 6.08424 8.125 6.25 8.125H13.75C13.9158 8.125 14.0747 8.05915 14.1919 7.94194C14.3092 7.82473 14.375 7.66576 14.375 7.5V6.25C14.375 6.08424 14.3092 5.92527 14.1919 5.80806C14.0747 5.69085 13.9158 5.625 13.75 5.625H6.25ZM5.3125 15.625C5.7269 15.625 6.12433 15.4604 6.41735 15.1674C6.71038 14.8743 6.875 14.4769 6.875 14.0625C6.875 13.6481 6.71038 13.2507 6.41735 12.9576C6.12433 12.6646 5.7269 12.5 5.3125 12.5C4.8981 12.5 4.50067 12.6646 4.20765 12.9576C3.91462 13.2507 3.75 13.6481 3.75 14.0625C3.75 14.4769 3.91462 14.8743 4.20765 15.1674C4.50067 15.4604 4.8981 15.625 5.3125 15.625ZM6.875 19.0625C6.875 19.4769 6.71038 19.8743 6.41735 20.1674C6.12433 20.4604 5.7269 20.625 5.3125 20.625C4.8981 20.625 4.50067 20.4604 4.20765 20.1674C3.91462 19.8743 3.75 19.4769 3.75 19.0625C3.75 18.6481 3.91462 18.2507 4.20765 17.9576C4.50067 17.6646 4.8981 17.5 5.3125 17.5C5.7269 17.5 6.12433 17.6646 6.41735 17.9576C6.71038 18.2507 6.875 18.6481 6.875 19.0625ZM14.6875 15.625C15.1019 15.625 15.4993 15.4604 15.7924 15.1674C16.0854 14.8743 16.25 14.4769 16.25 14.0625C16.25 13.6481 16.0854 13.2507 15.7924 12.9576C15.4993 12.6646 15.1019 12.5 14.6875 12.5C14.2731 12.5 13.8757 12.6646 13.5826 12.9576C13.2896 13.2507 13.125 13.6481 13.125 14.0625C13.125 14.4769 13.2896 14.8743 13.5826 15.1674C13.8757 15.4604 14.2731 15.625 14.6875 15.625ZM16.25 19.0625C16.25 19.4769 16.0854 19.8743 15.7924 20.1674C15.4993 20.4604 15.1019 20.625 14.6875 20.625C14.2731 20.625 13.8757 20.4604 13.5826 20.1674C13.2896 19.8743 13.125 19.4769 13.125 19.0625C13.125 18.6481 13.2896 18.2507 13.5826 17.9576C13.8757 17.6646 14.2731 17.5 14.6875 17.5C15.1019 17.5 15.4993 17.6646 15.7924 17.9576C16.0854 18.2507 16.25 18.6481 16.25 19.0625ZM10 15.625C10.4144 15.625 10.8118 15.4604 11.1049 15.1674C11.3979 14.8743 11.5625 14.4769 11.5625 14.0625C11.5625 13.6481 11.3979 13.2507 11.1049 12.9576C10.8118 12.6646 10.4144 12.5 10 12.5C9.5856 12.5 9.18817 12.6646 8.89515 12.9576C8.60212 13.2507 8.4375 13.6481 8.4375 14.0625C8.4375 14.4769 8.60212 14.8743 8.89515 15.1674C9.18817 15.4604 9.5856 15.625 10 15.625ZM11.5625 19.0625C11.5625 19.4769 11.3979 19.8743 11.1049 20.1674C10.8118 20.4604 10.4144 20.625 10 20.625C9.5856 20.625 9.18817 20.4604 8.89515 20.1674C8.60212 19.8743 8.4375 19.4769 8.4375 19.0625C8.4375 18.6481 8.60212 18.2507 8.89515 17.9576C9.18817 17.6646 9.5856 17.5 10 17.5C10.4144 17.5 10.8118 17.6646 11.1049 17.9576C11.3979 18.2507 11.5625 18.6481 11.5625 19.0625ZM4.0625 0C2.98506 0 1.95175 0.428012 1.18988 1.18988C0.428012 1.95175 0 2.98506 0 4.0625V20.9375C0 21.471 0.10508 21.9993 0.30924 22.4922C0.513399 22.985 0.812641 23.4329 1.18988 23.8101C1.56712 24.1874 2.01496 24.4866 2.50785 24.6908C3.00073 24.8949 3.529 25 4.0625 25H15.9375C16.471 25 16.9993 24.8949 17.4922 24.6908C17.985 24.4866 18.4329 24.1874 18.8101 23.8101C19.1874 23.4329 19.4866 22.985 19.6908 22.4922C19.8949 21.9993 20 21.471 20 20.9375V4.0625C20 2.98506 19.572 1.95175 18.8101 1.18988C18.0483 0.428012 17.0149 0 15.9375 0H4.0625ZM1.875 4.0625C1.875 2.855 2.855 1.875 4.0625 1.875H15.9375C17.145 1.875 18.125 2.855 18.125 4.0625V20.9375C18.125 21.5177 17.8945 22.0741 17.4843 22.4843C17.0741 22.8945 16.5177 23.125 15.9375 23.125H4.0625C3.48234 23.125 2.92594 22.8945 2.5157 22.4843C2.10547 22.0741 1.875 21.5177 1.875 20.9375V4.0625Z" fill="#A0A3B1" stroke="white" stroke-width="0.4" mask="url(#path-1-inside-1_1391_375)"/>
</svg>
