<svg width="20" height="18" viewBox="0 0 20 18" fill="none" xmlns="http://www.w3.org/2000/svg">
<mask id="path-1-inside-1_56_527" fill="white">
<path d="M11.9374 15.3677C15.6888 15.3677 17.5649 15.3677 18.7298 14.242C19.8957 13.1173 19.8957 11.3058 19.8957 7.68386C19.8957 4.06188 19.8957 2.25041 18.7298 1.12569C17.5649 -1.19209e-07 15.6888 0 11.9374 0H7.95828C4.20695 0 2.33078 -1.19209e-07 1.16589 1.12569C-1.19209e-07 2.25041 0 4.06188 0 7.68386C0 11.3058 -1.19209e-07 13.1173 1.16589 14.242C1.81548 14.8702 2.20678 14.878 3.5 15"/>
</mask>
<path d="M11.9374 14.3677C11.3851 14.3677 10.9374 14.8154 10.9374 15.3677C10.9374 15.92 11.3851 16.3677 11.9374 16.3677V14.3677ZM18.7298 14.242L18.0355 13.5223L18.0349 13.5229L18.7298 14.242ZM18.7298 1.12569L18.0349 1.84479L18.0355 1.84538L18.7298 1.12569ZM1.16589 1.12569L1.86018 1.84538L1.86079 1.84479L1.16589 1.12569ZM1.16589 14.242L1.86103 13.5232L1.86018 13.5223L1.16589 14.242ZM3.40609 15.9956C3.95594 16.0474 4.44372 15.6438 4.49558 15.0939C4.54744 14.5441 4.14375 14.0563 3.59391 14.0044L3.40609 15.9956ZM11.9374 16.3677C13.7858 16.3677 15.2693 16.3697 16.4323 16.2187C17.6205 16.0644 18.6242 15.7347 19.4247 14.9611L18.0349 13.5229C17.6705 13.8751 17.1537 14.1082 16.1748 14.2353C15.1706 14.3657 13.8404 14.3677 11.9374 14.3677V16.3677ZM19.4241 14.9617C20.2302 14.1841 20.5783 13.201 20.7404 12.0374C20.898 10.9062 20.8957 9.46559 20.8957 7.68386H18.8957C18.8957 9.52411 18.8934 10.8002 18.7595 11.7614C18.6302 12.6902 18.3954 13.1752 18.0355 13.5223L19.4241 14.9617ZM20.8957 7.68386C20.8957 5.90213 20.898 4.46154 20.7404 3.33033C20.5783 2.16667 20.2302 1.18359 19.4241 0.405988L18.0355 1.84538C18.3954 2.19251 18.6302 2.67752 18.7595 3.60627C18.8934 4.56748 18.8957 5.84361 18.8957 7.68386H20.8957ZM19.4247 0.40658C18.6242 -0.36695 17.6205 -0.696663 16.4323 -0.850963C15.2693 -1.00198 13.7858 -1 11.9374 -1V1C13.8404 1 15.1706 1.00198 16.1748 1.13238C17.1537 1.25951 17.6705 1.49264 18.0349 1.84479L19.4247 0.40658ZM11.9374 -1H7.95828V1H11.9374V-1ZM7.95828 -1C6.10994 -1 4.62636 -1.00198 3.46339 -0.850963C2.27517 -0.696663 1.27146 -0.366951 0.470987 0.40658L1.86079 1.84479C2.22521 1.49264 2.74203 1.25951 3.72095 1.13238C4.72512 1.00198 6.05528 1 7.95828 1V-1ZM0.471601 0.405988C-0.33446 1.18359 -0.682603 2.16667 -0.844701 3.33033C-1.00228 4.46154 -1 5.90213 -1 7.68386H1C1 5.84361 1.00228 4.56748 1.13617 3.60627C1.26555 2.67752 1.50035 2.19251 1.86018 1.84538L0.471601 0.405988ZM-1 7.68386C-1 9.46559 -1.00228 10.9062 -0.844701 12.0374C-0.682603 13.201 -0.33446 14.1841 0.471601 14.9617L1.86018 13.5223C1.50035 13.1752 1.26555 12.6902 1.13617 11.7614C1.00228 10.8002 1 9.52411 1 7.68386H-1ZM0.470744 14.9609C0.884204 15.3607 1.28446 15.6228 1.82107 15.7735C2.27247 15.9004 2.81397 15.9397 3.40609 15.9956L3.59391 14.0044C2.89281 13.9383 2.59205 13.9127 2.36209 13.8481C2.21735 13.8074 2.09717 13.7515 1.86103 13.5232L0.470744 14.9609Z" fill="#101928" mask="url(#path-1-inside-1_56_527)"/>
<path d="M11.9374 14.6407C10.7079 14.6407 9.35297 15.1209 8.11645 15.7404C6.12887 16.7364 5.13508 17.2349 4.64564 16.917C4.15621 16.6001 4.24873 15.6156 4.43475 13.6475L4.47653 13.2" stroke="#101928" stroke-linecap="round"/>
</svg>
