<svg width="20" height="20" viewBox="0 0 20 20" fill="none" xmlns="http://www.w3.org/2000/svg">
<path d="M10 0C12.6522 0 15.1957 1.05357 17.0711 2.92893C18.9464 4.8043 20 7.34784 20 10C20 12.6522 18.9464 15.1957 17.0711 17.0711C15.1957 18.9464 12.6522 20 10 20C7.34784 20 4.8043 18.9464 2.92893 17.0711C1.05357 15.1957 0 12.6522 0 10C0 7.34784 1.05357 4.8043 2.92893 2.92893C4.8043 1.05357 7.34784 0 10 0ZM10 1.25C8.85093 1.25 7.71312 1.47633 6.65152 1.91605C5.58992 2.35578 4.62533 3.0003 3.81282 3.81282C3.0003 4.62533 2.35578 5.58992 1.91605 6.65152C1.47633 7.71312 1.25 8.85093 1.25 10C1.25 11.1491 1.47633 12.2869 1.91605 13.3485C2.35578 14.4101 3.0003 15.3747 3.81282 16.1872C4.62533 16.9997 5.58992 17.6442 6.65152 18.0839C7.71312 18.5237 8.85093 18.75 10 18.75C12.3206 18.75 14.5462 17.8281 16.1872 16.1872C17.8281 14.5462 18.75 12.3206 18.75 10C18.75 7.67936 17.8281 5.45376 16.1872 3.81282C14.5462 2.17187 12.3206 1.25 10 1.25ZM6.44375 13.0338C7.34726 13.9434 8.56493 14.4724 9.84644 14.5119C11.1279 14.5514 12.3759 14.0985 13.3337 13.2463L13.5563 13.0338C13.6661 12.9221 13.8138 12.8558 13.9701 12.8479C14.1265 12.84 14.2802 12.8911 14.4007 12.991C14.5212 13.0909 14.5998 13.2325 14.621 13.3876C14.6422 13.5427 14.6043 13.7002 14.515 13.8287L14.4438 13.9163L14.415 13.9437C13.8315 14.5236 13.1394 14.9828 12.3784 15.2951C11.6174 15.6075 10.8023 15.7669 9.97967 15.7642C9.15705 15.7616 8.343 15.5969 7.58403 15.2796C6.82505 14.9623 6.13601 14.4986 5.55625 13.915C5.43939 13.7973 5.37407 13.638 5.37465 13.4722C5.37524 13.3063 5.44169 13.1475 5.55938 13.0306C5.67706 12.9138 5.83636 12.8484 6.00221 12.849C6.16806 12.8496 6.32689 12.9161 6.44375 13.0338ZM13.125 6.875C13.4565 6.875 13.7745 7.0067 14.0089 7.24112C14.2433 7.47554 14.375 7.79348 14.375 8.125C14.375 8.45652 14.2433 8.77446 14.0089 9.00888C13.7745 9.2433 13.4565 9.375 13.125 9.375C12.7935 9.375 12.4755 9.2433 12.2411 9.00888C12.0067 8.77446 11.875 8.45652 11.875 8.125C11.875 7.79348 12.0067 7.47554 12.2411 7.24112C12.4755 7.0067 12.7935 6.875 13.125 6.875ZM6.875 6.875C7.20652 6.875 7.52446 7.0067 7.75888 7.24112C7.9933 7.47554 8.125 7.79348 8.125 8.125C8.125 8.45652 7.9933 8.77446 7.75888 9.00888C7.52446 9.2433 7.20652 9.375 6.875 9.375C6.54348 9.375 6.22554 9.2433 5.99112 9.00888C5.7567 8.77446 5.625 8.45652 5.625 8.125C5.625 7.79348 5.7567 7.47554 5.99112 7.24112C6.22554 7.0067 6.54348 6.875 6.875 6.875Z" fill="#C5C7CA"/>
</svg>
