<svg width="24" height="26" viewBox="0 0 24 26" fill="none" xmlns="http://www.w3.org/2000/svg">
<path d="M6.65504 11.8398C6.97682 11.8342 7.28328 11.7058 7.50699 11.4828C7.7307 11.2598 7.85334 10.9605 7.84794 10.6508C7.84253 10.3411 7.70952 10.0462 7.47816 9.8312C7.2468 9.61616 6.93605 9.49851 6.61427 9.50412C6.29249 9.50974 5.98604 9.63817 5.76233 9.86115C5.53862 10.0841 5.41597 10.3834 5.42138 10.6931C5.42679 11.0029 5.5598 11.2977 5.79115 11.5127C6.02251 11.7278 6.33326 11.8454 6.65504 11.8398ZM12.7321 13.6919C12.7375 14.0016 12.6148 14.3009 12.3911 14.5239C12.1674 14.7469 11.861 14.8753 11.5392 14.8809C11.2174 14.8865 10.9066 14.7689 10.6753 14.5538C10.4439 14.3388 10.3109 14.044 10.3055 13.7343C10.3001 13.4245 10.4227 13.1253 10.6465 12.9023C10.8702 12.6793 11.1766 12.5509 11.4984 12.5453C11.8202 12.5396 12.1309 12.6573 12.3623 12.8723C12.5936 13.0874 12.7267 13.3822 12.7321 13.6919ZM6.78442 18.8795C7.1077 18.8739 7.41559 18.7448 7.64035 18.5208C7.86511 18.2968 7.98833 17.9961 7.98289 17.6849C7.97746 17.3737 7.84383 17.0776 7.61139 16.8615C7.37895 16.6455 7.06674 16.5273 6.74346 16.5329C6.42017 16.5385 6.11228 16.6676 5.88752 16.8916C5.66276 17.1156 5.53954 17.4163 5.54498 17.7275C5.55041 18.0387 5.68404 18.3349 5.91648 18.5509C6.14892 18.767 6.46113 18.8852 6.78442 18.8795ZM0.836537 4.05547C0.806675 2.34473 2.23408 0.871097 4.07823 0.948303C11.3037 1.24883 17.6746 3.47713 22.7128 7.94788C24.1426 9.21536 23.9019 11.3309 22.4615 12.4344C20.2203 14.1613 17.9634 15.8693 15.6912 17.5582L15.7386 20.2766C15.7582 21.3968 14.8787 22.6358 13.3449 22.6626C13.0702 22.668 12.7965 22.6305 12.5344 22.5517L12.5367 22.6814C12.5561 23.7954 11.6749 25.0266 10.1378 25.0534C8.91395 25.0748 8.09371 24.3124 7.79458 23.4534C6.91629 24.1095 5.95621 24.8232 5.0987 25.4602C3.51192 26.6397 1.21216 25.5749 1.17859 23.6517L0.836537 4.05547ZM12.494 20.3333C12.5011 20.7379 12.8242 21.1089 13.3176 21.1003C13.8127 21.0917 14.1226 20.708 14.1155 20.305L14.0612 17.1897C14.0591 17.0666 14.0873 16.9447 14.1435 16.834C14.1997 16.7233 14.2823 16.6269 14.3845 16.5527C15.6351 15.6463 17.7631 14.0323 19.6473 12.5945C15.2064 8.66495 9.03764 6.39561 2.50214 6.46124L2.8017 23.6234C2.80467 23.7679 2.84925 23.9088 2.93047 24.0302C3.01169 24.1518 3.12636 24.2491 3.26174 24.3116C3.39712 24.374 3.54788 24.399 3.69726 24.3839C3.84664 24.3687 3.98878 24.3139 4.10786 24.2257C5.36764 23.2879 6.85345 22.1836 7.96891 21.3484C8.08796 21.2592 8.23041 21.2037 8.38029 21.1881C8.53017 21.1724 8.68156 21.1973 8.81749 21.2598C8.95343 21.3223 9.06854 21.4201 9.14993 21.5421C9.23132 21.6641 9.27577 21.8056 9.27831 21.9506L9.29205 22.7381C9.29876 23.1224 9.61386 23.5013 10.1105 23.4927C10.2169 23.4933 10.3224 23.4734 10.4207 23.4341C10.519 23.3949 10.6082 23.337 10.6829 23.264C10.7576 23.191 10.8164 23.1044 10.8557 23.0092C10.8951 22.914 10.9142 22.8122 10.9119 22.7098L10.8709 20.3616C10.8673 20.1544 10.9493 19.9542 11.099 19.8051C11.2486 19.6559 11.4536 19.57 11.6689 19.5663C11.8841 19.5625 12.092 19.6412 12.2467 19.7851C12.4015 19.9289 12.4904 20.1261 12.494 20.3333ZM21.4498 11.2143C22.1948 10.6434 22.2343 9.64874 21.6109 9.09545C16.8993 4.91594 10.915 2.79653 4.0064 2.50767C3.16314 2.47238 2.44435 3.15068 2.45965 4.02714L2.47487 4.89892C9.49898 4.82788 16.1583 7.29651 20.9339 11.6093L21.4498 11.2143Z" fill="#A0A3B1"/>
</svg>
