<svg width="25" height="25" viewBox="0 0 25 25" fill="none" xmlns="http://www.w3.org/2000/svg">
<path d="M18.4887 6.51172C18.3715 6.39446 18.224 6.31214 18.0627 6.27398C17.9014 6.23582 17.7326 6.24332 17.5753 6.29565L9.53961 8.97422C9.408 9.0181 9.28841 9.09201 9.19032 9.19011C9.09222 9.28821 9.01831 9.40779 8.97443 9.5394L6.29586 17.5751C6.24339 17.7324 6.23578 17.9012 6.27387 18.0627C6.31196 18.2241 6.39425 18.3717 6.51151 18.4889C6.62878 18.6062 6.77638 18.6885 6.93778 18.7266C7.09918 18.7647 7.268 18.757 7.42532 18.7046L15.461 16.026C15.5926 15.9821 15.7122 15.9082 15.8103 15.8101C15.9084 15.712 15.9823 15.5924 16.0262 15.4608L18.7048 7.42511C18.7571 7.26782 18.7646 7.09906 18.7265 6.93773C18.6883 6.77641 18.606 6.6289 18.4887 6.51172ZM8.55479 16.4465L10.528 10.5287L14.4735 14.4742L8.55479 16.4465Z" fill="#A0A3B1"/>
<path d="M23.2643 12.5V12.4999C23.261 9.64612 22.1258 6.91012 20.1078 4.89216C18.0899 2.8742 15.3539 1.73904 12.5001 1.73572L12.5 1.78572V1.73572C10.371 1.73572 8.28987 2.36703 6.51969 3.54983C4.74951 4.73262 3.36982 6.41377 2.5551 8.38069C1.74038 10.3476 1.52721 12.5119 1.94255 14.6C2.35789 16.6881 3.38309 18.6061 4.8885 20.1115C6.39392 21.6169 8.31193 22.6421 10.4 23.0575C12.4881 23.4728 14.6524 23.2596 16.6193 22.4449C18.5862 21.6302 20.2674 20.2505 21.4502 18.4803C22.633 16.7101 23.2643 14.629 23.2643 12.5ZM12.4999 24.95C10.0376 24.95 7.63053 24.2198 5.58315 22.8518C3.53576 21.4838 1.94002 19.5394 0.997705 17.2644C0.0553944 14.9895 -0.191157 12.4862 0.289229 10.0711C0.769615 7.65607 1.95536 5.43769 3.69653 3.69653C5.43769 1.95536 7.65607 0.769615 10.0711 0.289229C12.4862 -0.191157 14.9895 0.0553944 17.2644 0.997705C19.5394 1.94002 21.4838 3.53576 22.8518 5.58315C24.2198 7.63053 24.95 10.0376 24.95 12.4999C24.9462 15.8007 23.6333 18.9653 21.2993 21.2993C18.9653 23.6333 15.8007 24.9462 12.4999 24.95Z" fill="#A0A3B1" stroke="white" stroke-width="0.1"/>
</svg>
